<?xml version="1.0" encoding="utf-8"?>
<!-- Generator: Adobe Illustrator 23.0.1, SVG Export Plug-In . SVG Version: 6.00 Build 0)  -->
<svg width="16" height="16" version="1.1" id="Livello_1" xmlns="http://www.w3.org/2000/svg" xmlns:xlink="http://www.w3.org/1999/xlink" x="0px" y="0px"
	 viewBox="0 0 437.5 437.5" enable-background="new 0 0 437.5 437.5" xml:space="preserve">
<g>
	<path fill="currentColor" d="M437.5,406.2c0,17.2-14,31.2-31.2,31.2h-375C14,437.5,0,423.5,0,406.2v-375C0,14,14,0,31.2,0h375
		c17.2,0,31.2,14,31.2,31.2V406.2z"/>
	
		<linearGradient id="SVGID_1_" gradientUnits="userSpaceOnUse" x1="1037.974" y1="-220.1406" x2="1449.1095" y2="-631.276" gradientTransform="matrix(0.5 0 0 -0.5 -370.125 59.625)">
		<stop  offset="0" style="stop-color:#3E2723;stop-opacity:0.2"/>
		<stop  offset="1" style="stop-color:#3E2723;stop-opacity:0"/>
	</linearGradient>
	<path fill="url(#SVGID_1_)" d="M140.6,140.6l-24,180.3l116.7,116.6h173c17.2,0,31.2-14,31.2-31.2V274.9L279.2,116.6L140.6,140.6z"
		/>
	<path fill="#3E2723" fill-opacity="0.2" d="M406.2,434.9h-375C14,434.9,0,420.9,0,403.6v2.6c0,17.2,14,31.2,31.2,31.2h375
		c17.2,0,31.2-14,31.2-31.2v-2.6C437.5,420.9,423.5,434.9,406.2,434.9z"/>
	<path fill="#FFFFFF" fill-opacity="0.2" d="M406.2,0h-375C14,0,0,14,0,31.2v2.6C0,16.6,14,2.6,31.2,2.6h375
		c17.2,0,31.2,14,31.2,31.3v-2.6C437.5,14,423.5,0,406.2,0z"/>
	<path fill="#F1F1F1" d="M328.1,187.5h-10.4c-8.6,0-15.6-7-15.6-15.6c0-43.1-35-78.1-78.1-78.1h-52.1c-43.1,0-78.1,35-78.1,78.1
		v93.8c0,43.1,35,78.1,78.1,78.1h93.8c43.1,0,78.1-35,78.1-78.1v-62.5C343.8,194.5,336.8,187.5,328.1,187.5z M171.9,156.2h62.5
		c8.6,0,15.6,7,15.6,15.6s-7,15.6-15.6,15.6h-62.5c-8.6,0-15.6-7-15.6-15.6S163.2,156.2,171.9,156.2z M265.6,281.2h-93.8
		c-8.6,0-15.6-7-15.6-15.6s7-15.6,15.6-15.6h93.8c8.6,0,15.6,7,15.6,15.6S274.3,281.2,265.6,281.2z"/>
	<path fill="#3E2723" fill-opacity="0.1" d="M171.9,252.6h93.8c8.2,0,14.8,6.3,15.5,14.3c0.1-0.4,0.2-0.8,0.2-1.3
		c0-8.6-7-15.6-15.6-15.6h-93.8c-8.6,0-15.6,7-15.6,15.6c0,0.5,0.1,0.9,0.2,1.3C157,258.9,163.7,252.6,171.9,252.6z M171.9,158.9
		h62.5c8.2,0,14.8,6.3,15.5,14.3c0.1-0.4,0.2-0.8,0.2-1.3c0-8.6-7-15.6-15.6-15.6h-62.5c-8.6,0-15.6,7-15.6,15.6
		c0,0.5,0.1,0.9,0.2,1.3C157,165.2,163.7,158.9,171.9,158.9z M265.6,343.8h-93.8c-43.1,0-78.1-35-78.1-78.1v2.6
		c0,43.1,35,78.1,78.1,78.1h93.8c43.1,0,78.1-35,78.1-78.1v-2.6C343.8,308.8,308.8,343.8,265.6,343.8z"/>
	<path fill="#FFFFFF" fill-opacity="0.4" d="M265.6,281.2h-93.8c-8.2,0-14.8-6.3-15.5-14.3c-0.1,0.4-0.2,0.8-0.2,1.3
		c0,8.6,7,15.6,15.6,15.6h93.8c8.6,0,15.6-7,15.6-15.6c0-0.5-0.1-0.9-0.2-1.3C280.5,274.9,273.8,281.2,265.6,281.2z M328.1,187.5
		h-10.4c-8.6,0-15.6-7-15.6-15.6c0-43.1-35-78.1-78.1-78.1h-52.1c-43.1,0-78.1,35-78.1,78.1v2.6c0-43.1,35-78.1,78.1-78.1H224
		c43.1,0,78.1,35,78.1,78.1c0,8.6,7,15.6,15.6,15.6h10.4c8.6,0,15.6,7,15.6,15.6v-2.6C343.8,194.5,336.8,187.5,328.1,187.5z
		 M171.9,190.1h62.5c8.6,0,15.6-7,15.6-15.6c0-0.5-0.1-0.9-0.2-1.3c-0.6,8-7.3,14.3-15.5,14.3h-62.5c-8.2,0-14.8-6.3-15.5-14.3
		c-0.1,0.4-0.2,0.8-0.2,1.3C156.2,183.1,163.2,190.1,171.9,190.1z"/>
	
		<radialGradient id="SVGID_2_" cx="763.4896" cy="103.2396" r="1186.0625" gradientTransform="matrix(0.5 0 0 -0.5 -370.125 59.625)" gradientUnits="userSpaceOnUse">
		<stop  offset="0.32" style="stop-color:#FFFFFF"/>
		<stop  offset="1" style="stop-color:#FFFFFF;stop-opacity:0"/>
	</radialGradient>
	<path fill="url(#SVGID_2_)" fill-opacity="0.1" d="M437.5,406.2c0,17.2-14,31.2-31.2,31.2h-375C14,437.5,0,423.5,0,406.2v-375
		C0,14,14,0,31.2,0h375c17.2,0,31.2,14,31.2,31.2V406.2z"/>
</g>
</svg>
